<?xml version="1.0" encoding="utf-8"?>
<!-- Generator: Adobe Illustrator 26.2.1, SVG Export Plug-In . SVG Version: 6.00 Build 0)  -->
<svg version="1.1" id="Layer_1" xmlns="http://www.w3.org/2000/svg" xmlns:xlink="http://www.w3.org/1999/xlink" x="0px" y="0px"
	 viewBox="0 0 947.41 145.83" style="enable-background:new 0 0 947.41 145.83;" xml:space="preserve">
<style type="text/css">
	.st0{fill:none;}
	.st1{fill:#099DFD;}
	.st2{fill:#FFFFFF;}
</style>
<rect x="0.1" y="-0.15" class="st0" width="947.07" height="144.21"/>
<g>
	<path class="st1" d="M170.86,87.42c-9.29,0-16.86-7.56-16.86-16.85c0-9.29,7.56-16.86,16.86-16.86c9.29,0,16.85,7.56,16.85,16.86
		C187.71,79.86,180.15,87.42,170.86,87.42 M170.86,40c-16.86,0-30.57,13.71-30.57,30.57c0,16.85,13.71,30.57,30.57,30.57
		c16.85,0,30.57-13.71,30.57-30.57C201.42,53.71,187.71,40,170.86,40"/>
	<path class="st1" d="M221.72,47.87l-0.39,0.37l-0.41,0.39l-0.27-0.5l-0.25-0.47c-2.2-4.09-6.26-6.91-10.85-7.53l-1.13-0.15v61.17
		l1.14-0.17c6.26-0.91,12.57-5.71,12.57-14.39V70.57c0-8.53,6.64-15.9,15.12-16.77l0.9-0.09V39.99l-1.1,0.11
		C231.74,40.62,226.44,43.31,221.72,47.87"/>
	<path class="st1" d="M33.77,87.44c-9.29,0-16.85-7.56-16.85-16.85s7.56-16.86,16.85-16.86c9.29,0,16.85,7.56,16.85,16.86
		S43.07,87.44,33.77,87.44 M53.4,46.05l-0.24,0.34l-0.26,0.35l-0.35-0.27l-0.33-0.25c-5.35-4.06-11.73-6.21-18.44-6.21
		c-16.85,0-30.57,13.71-30.57,30.57c0,16.85,13.71,30.57,30.57,30.57c6.71,0,13.09-2.15,18.44-6.21l0.33-0.25l0.35-0.27l0.26,0.36
		l0.24,0.34c2.32,3.21,5.9,5.36,9.81,5.9l1.14,0.16V40l-1.14,0.16C59.29,40.69,55.72,42.84,53.4,46.05"/>
	<path class="st1" d="M272.15,87.44c-9.29,0-16.86-7.56-16.86-16.85s7.56-16.85,16.86-16.85c9.29,0,16.85,7.56,16.85,16.85
		S281.44,87.44,272.15,87.44 M301.58,40.15c-3.91,0.54-7.49,2.69-9.81,5.9l-0.24,0.34l-0.26,0.36l-0.35-0.27l-0.33-0.25
		c-5.35-4.06-11.73-6.21-18.44-6.21c-16.86,0-30.57,13.71-30.57,30.57s13.71,30.57,30.57,30.57c6.71,0,13.09-2.15,18.44-6.21
		l0.33-0.25l0.35-0.27l0.26,0.35l0.24,0.34c2.32,3.21,5.9,5.36,9.81,5.9l1.14,0.16V40L301.58,40.15z"/>
	<path class="st1" d="M102.79,53.71h0.02c9.29,0.01,16.84,7.56,16.84,16.85c0,9.29-7.56,16.86-16.85,16.86
		c-9.29,0-16.85-7.56-16.85-16.86C85.94,61.28,93.5,53.72,102.79,53.71 M121.89,94.41c6.99-5.61,11.47-14.21,11.47-23.84
		c0-6.34-1.94-12.24-5.27-17.13c-0.44-0.65-0.92-1.28-1.41-1.89c3.75-2.38,5.93-6.4,6.51-10.4l0.17-1.14h-30.7v0
		c-16.79,0.07-30.44,13.75-30.44,30.56c0,9.64,4.49,18.24,11.47,23.85c-1.31,1.05-2.54,2.21-3.66,3.46l9.32,10.22
		c3.08-4.06,7.95-6.69,13.43-6.69c9.29,0,16.85,7.56,16.85,16.86c0,6.03-3.18,11.32-7.95,14.3l9.33,10.22
		c7.48-5.58,12.34-14.49,12.34-24.52C133.37,108.62,128.88,100.02,121.89,94.41"/>
</g>
<g>
	<path class="st2" d="M334.37,40.26h20.93c16.92,0,28.51,11.68,28.51,29.94c0,18.14-11.32,31.07-28.68,31.07h-20.76V40.26z
		 M340.61,95.78h13.86c15.33,0,22.76-10.86,22.76-25.36c0-12.8-6.73-24.66-22.75-24.66h-13.87V95.78z"/>
	<path class="st2" d="M395.84,80.2c0.07,10.25,5.24,16.97,13.23,16.97c7.67,0,10.23-4.17,11.73-7.6h5.93
		c-1.79,5.73-6.48,12.74-17.86,12.74c-13.58,0-18.97-11.39-18.97-22.63c0-12.8,6.4-23.44,19.48-23.44c13.84,0,18.3,11.55,18.3,20.33
		c0,1.28,0,2.46-0.1,3.62H395.84z M421.68,75.65c-0.09-8.04-4.33-14.42-12.45-14.42c-8.45,0-12.25,5.9-13.13,14.42H421.68z"/>
	<path class="st2" d="M435.42,57.29c6.57,19.16,11.23,32.75,12.75,38.31h0.09c1.02-4,5.83-17.14,13.48-38.31h6.06l-16.42,43.97
		h-6.69l-15.51-43.97H435.42z"/>
	<path class="st2" d="M474.71,80.2c0.07,10.25,5.24,16.97,13.23,16.97c7.67,0,10.23-4.17,11.73-7.6h5.93
		c-1.79,5.73-6.48,12.74-17.86,12.74c-13.58,0-18.97-11.39-18.97-22.63c0-12.8,6.4-23.44,19.48-23.44c13.84,0,18.3,11.55,18.3,20.33
		c0,1.28,0,2.46-0.1,3.62H474.71z M500.54,75.65c-0.09-8.04-4.33-14.42-12.45-14.42c-8.45,0-12.25,5.9-13.13,14.42H500.54z"/>
	<path class="st2" d="M514.01,101.27V36.97h5.85v64.29H514.01z"/>
	<path class="st2" d="M567.33,79.19c0,12.43-7,23.12-20.25,23.12c-12.2,0-19.7-9.76-19.7-23.01c0-12.76,7.18-23.06,20.16-23.06
		C559.47,56.24,567.33,65.39,567.33,79.19z M533.48,79.28c0,10.09,5.26,17.89,13.93,17.89c8.83,0,13.82-7.3,13.82-17.88
		c0-10.16-4.92-17.91-13.99-17.91C538.03,61.39,533.48,68.96,533.48,79.28z"/>
	<path class="st2" d="M580.59,95.25v23.47h-5.84V68.07c0-3.6,0-7.4-0.09-10.78h5.71c0.17,1.58,0.22,4.23,0.22,7.46
		c2.57-4.89,7.23-8.51,14.97-8.51c10.28,0,17.58,8.62,17.58,21.9c0,15.77-8.46,24.17-19.1,24.17
		C586.58,102.31,582.69,99.09,580.59,95.25z M607.03,78.37c0-9.8-4.61-16.87-12.77-16.87c-9.94,0-13.98,6.26-13.98,17.64
		c0,11.15,3.21,18,13.38,18C602.3,97.14,607.03,89.91,607.03,78.37z"/>
	<path class="st2" d="M624.14,80.2c0.07,10.25,5.24,16.97,13.23,16.97c7.67,0,10.23-4.17,11.73-7.6h5.93
		c-1.79,5.73-6.48,12.74-17.86,12.74c-13.58,0-18.97-11.39-18.97-22.63c0-12.8,6.4-23.44,19.48-23.44c13.84,0,18.3,11.55,18.3,20.33
		c0,1.28,0,2.46-0.1,3.62H624.14z M649.98,75.65c-0.09-8.04-4.33-14.42-12.45-14.42c-8.45,0-12.25,5.9-13.13,14.42H649.98z"/>
	<path class="st2" d="M663.39,69.25c0-6.82-0.07-10.12-0.09-11.95h5.74c0.1,1.33,0.2,4.43,0.2,9.45c2.44-6.3,7.89-10.21,15.08-10.5
		v6.04c-9.09,0.46-15.08,6.05-15.08,16.81v22.17h-5.85V69.25z"/>
	<path class="st2" d="M762.9,84.52c-2.8,9.98-10.2,17.48-23.53,17.48c-17.85,0-27.07-13.9-27.07-31.1c0-16.52,9.13-31.5,27.25-31.5
		c13.71,0,21.49,7.72,23.4,17.92h-6.23c-2.52-7.35-7.32-12.48-17.46-12.48c-14.39,0-20.37,13.12-20.37,25.91
		c0,12.58,5.8,25.82,20.71,25.82c9.7,0,14.33-5.25,17.04-12.04H762.9z"/>
	<path class="st2" d="M774.56,80.2c0.07,10.25,5.24,16.97,13.23,16.97c7.67,0,10.23-4.17,11.73-7.6h5.93
		c-1.79,5.73-6.48,12.74-17.86,12.74c-13.58,0-18.97-11.39-18.97-22.63c0-12.8,6.4-23.44,19.48-23.44c13.84,0,18.3,11.55,18.3,20.33
		c0,1.28,0,2.46-0.1,3.62H774.56z M800.4,75.65c-0.09-8.04-4.33-14.42-12.45-14.42c-8.45,0-12.25,5.9-13.13,14.42H800.4z"/>
	<path class="st2" d="M813.82,68.37c0-3.84,0-7.61-0.09-11.08h5.71c0.19,1.36,0.29,6.57,0.23,7.84c1.85-4.16,5.45-8.89,14.25-8.89
		c8.02,0,14.74,4.69,14.74,16.63v28.4h-5.85V73.69c0-7.29-2.95-12.1-10.18-12.1c-9.47,0-12.96,7.61-12.96,16.86v22.82h-5.85V68.37z"
		/>
	<path class="st2" d="M852.74,57.29h7.92V43.91h5.85v13.38h10.12v5.07h-10.12v27.29c0,4.63,1.05,7.16,5.16,7.16
		c1.2,0,2.92-0.07,4.24-0.45v4.71c-1.67,0.65-4,0.8-5.96,0.8c-6.18,0-9.29-3.15-9.29-10.31V62.37h-7.92V57.29z"/>
	<path class="st2" d="M884.1,80.2c0.07,10.25,5.24,16.97,13.23,16.97c7.67,0,10.23-4.17,11.73-7.6h5.93
		c-1.79,5.73-6.48,12.74-17.86,12.74c-13.58,0-18.97-11.39-18.97-22.63c0-12.8,6.4-23.44,19.48-23.44c13.84,0,18.3,11.55,18.3,20.33
		c0,1.28,0,2.46-0.1,3.62H884.1z M909.94,75.65c-0.09-8.04-4.33-14.42-12.45-14.42c-8.45,0-12.25,5.9-13.13,14.42H909.94z"/>
	<path class="st2" d="M923.35,69.25c0-6.82-0.07-10.12-0.09-11.95H929c0.1,1.33,0.2,4.43,0.2,9.45c2.44-6.3,7.89-10.21,15.08-10.5
		v6.04c-9.09,0.46-15.08,6.05-15.08,16.81v22.17h-5.85V69.25z"/>
</g>
</svg>
